# AST/ASF file generated using VICON BodyLanguage
# -----------------------------------------------
:version 1.10
:name VICON
:units
  mass 1.0
  length 0.45
  angle deg
:documentation
   .ast/.asf automatically generated from VICON data using
   VICON BodyBuilder and BodyLanguage model FoxedUp or BRILLIANT.MOD
:root
   order TX TY TZ RX RY RZ
   axis XYZ
   position 0 0 0  
   orientation 0 0 0 
:bonedata
  begin
     id 1 
     name lhipjoint
     direction 0.64773 -0.699417 0.302095 
     length 2.48597 
     axis 0 0 0  XYZ
  end
  begin
     id 2 
     name lfemur
     direction 0.34202 -0.939693 0  
     length 6.71947  
     axis 0 0 20  XYZ
    dof rx ry rz
    limits (-160.0 20.0)
           (-70.0 70.0)
           (-60.0 70.0)
  end
  begin
     id 3 
     name ltibia
     direction 0.34202 -0.939693 0   
     length 8.08777   
     axis 0 0 20   XYZ
    dof rx
    limits (-10.0 170.0)
  end
  begin
     id 4 
     name lfoot
     direction 0.0808503 -0.222134 0.971658   
     length 2.08264   
     axis -90 7.62852e-016 20   XYZ
    dof rx rz
    limits (-45.0 90.0)
           (-70.0 20.0)
  end
  begin
     id 5 
     name ltoes
     direction 1.53502e-011 -4.22007e-011 1   
     length 1.04662   
     axis -90 7.62852e-016 20   XYZ
    dof rx
    limits (-90.0 20.0)
  end
  begin
     id 6 
     name rhipjoint
     direction -0.610924 -0.726792 0.313919   
     length 2.39233  
     axis 0 0 0  XYZ 
  end
  begin
     id 7 
     name rfemur
     direction -0.34202 -0.939693 0   
     length 6.96955   
     axis 0 0 -20   XYZ
    dof rx ry rz
    limits (-160.0 20.0)
           (-70.0 70.0)
           (-70.0 60.0)
  end
  begin
     id 8 
     name rtibia
     direction -0.34202 -0.939693 0   
     length 8.19584   
     axis 0 0 -20   XYZ
    dof rx
    limits (-10.0 170.0)
 end
 begin
     id 9 
     name rfoot
     direction -0.077777 -0.213691 0.9738   
     length 2.07539  
     axis -90 -7.62852e-016 -20   XYZ
    dof rx rz
    limits (-45.0 90.0)
           (-20.0 70.0)
  end
  begin
     id 10 
     name rtoes
     direction -1.53558e-011 -4.22006e-011 1   
     length 1.04381   
     axis -90 -7.62852e-016 -20   XYZ
    dof rx
    limits (-90.0 20.0)
  end
  begin
     id 11 
     name lowerback
     direction -0.00971646 0.996074 0.0879841   
     length 1.67643   
     axis 0 0 0   XYZ
    dof rx ry rz
    limits (-20.0 45.0)
           (-30.0 30.0)
           (-30.0 30.0)
  end
  begin
     id 12 
     name upperback
     direction 0.0127391 0.991676 0.128127   
     length 1.63741   
     axis 0 0 0   XYZ
    dof rx ry rz
    limits (-20.0 45.0)
           (-30.0 30.0)
           (-30.0 30.0)
  end
  begin
     id 13 
     name thorax
     direction 0.0167583 0.996049 0.0872067   
     length 1.65931   
     axis 0 0 0   XYZ
    dof rx ry rz
    limits (-20.0 45.0)
           (-30.0 30.0)
           (-30.0 30.0)
  end
  begin
     id 14 
     name lowerneck
     direction -0.0317829 0.998312 0.0486079   
     length 1.79021   
     axis 0 0 0   XYZ
    dof rx ry rz
    limits (-20.0 45.0)
           (-30.0 30.0)
           (-30.0 30.0)
  end
  begin
     id 15 
     name upperneck
     direction 0.0896851 0.972452 -0.215159   
     length 1.78797   
     axis 0 0 0   XYZ
    dof rx ry rz
    limits (-20.0 45.0)
           (-30.0 30.0)
           (-30.0 30.0)
  end
  begin
     id 16
     name head
     direction 0.0310949 0.996503 -0.0775582  
     length 1.81549  
     axis 0 0 0   XYZ
    dof rx ry rz
    limits (-20.0 45.0)
           (-30.0 30.0)
           (-30.0 30.0)
  end
  begin
     id 17 
     name lclavicle
     direction 0.853638 0.502051 -0.138733  
     length 3.31627  
     axis 0 0 0   XYZ
    dof ry rz
    limits (-20.0 10.0)
           (0.0 20.0)
  end
  begin
     id 18 
     name lhumerus
     direction 1 -4.48962e-011 -1.41788e-018   
     length 5.54893   
     axis 180 -30 -90   XYZ
    dof rx ry rz
    limits (-60.0 90.0)
           (-90.0 90.0)
           (-90.0 90.0)
  end
  begin
     id 19
     name lradius
     direction 1 -4.48962e-011 -4.95754e-027   
     length 3.02898   
     axis 180 -30 -90   XYZ
    dof rx
    limits (-10.0 170.0)
  end
  begin
     id 20
     name lwrist
     direction 1 -4.48952e-011 -1.03764e-026   
     length 1.51449   
     axis 9.09556e-015 90 90   XYZ
    dof ry
    limits (-180.0 0.0)
 end
  begin
     id 21 
     name lhand
     direction 1 -4.4902e-011 -2.07528e-026   
     length 0.640951   
     axis 1.3242e-014 90 90   XYZ
    dof rx rz
    limits (-90.0 90.0)
           (-45.0 45.0)
  end
  begin
     id 22 
     name lfingers
     direction 1 -4.49014e-011 -4.15056e-026   
     length 0.516751   
     axis 2.64841e-014 90 90   XYZ
    dof rx
    limits (0.0 90.0)
  end
  begin
     id 23
     name lthumb
     direction 0.707107 -6.35008e-011 0.707107   
     length 0.741954   
     axis -90 45 2.85299e-015   XYZ
    dof rx rz
    limits (-45.0 45.0)
           (-45.0 45.0)
  end
  begin
     id 24 
     name rclavicle
     direction -0.888531 0.455324 -0.0565039   
     length 3.20126  
     axis 0 0 0   XYZ 
    dof ry rz
    limits (-10.0 20.0)
           (-20.0 0.0)
  end
  begin
     id 25 
     name rhumerus
     direction -1 -4.48946e-011 -8.98298e-028  
     length 5.3519   
     axis 180 30 90   XYZ
    dof rx ry rz
    limits (-90.0 60.0)
           (-90.0 90.0)
           (-90.0 90.0)
  end
  begin
     id 26 
     name rradius
     direction -1 -4.4899e-011 -3.18779e-027   
     length 3.02531   
     axis 180 30 90   XYZ
    dof rx
    limits (-10.0 170.0)
  end
  begin
     id 27 
     name rwrist
     direction -1 -4.4897e-011 -1.03764e-026   
     length 1.51266   
     axis 9.09556e-015 -90 -90   XYZ
    dof ry
    limits (-180.0 0.0)
  end
  begin
     id 28
     name rhand
     direction -1 -4.48941e-011 -2.07528e-026   
     length 0.78389   
     axis 1.3242e-014 -90 -90   XYZ
    dof rx rz
    limits (-90.0 90.0)
           (-45.0 45.0)
  end
  begin
     id 29
     name rfingers
     direction -1 -4.49012e-011 -4.15056e-026   
     length 0.631992   
     axis 2.64841e-014 -90 -90   XYZ
    dof rx
    limits (0.0 90.0)
  end
  begin
     id 30
     name rthumb
     direction -0.707107 -6.3496e-011 0.707107   
     length 0.907418   
     axis -90 -45 -2.85299e-015   XYZ
    dof rx rz
    limits (-45.0 45.0)
           (-45.0 45.0)
  end
:hierarchy
  begin
    root lhipjoint rhipjoint lowerback
    lhipjoint lfemur
    lfemur ltibia
    ltibia lfoot
    lfoot ltoes
    rhipjoint rfemur
    rfemur rtibia
    rtibia rfoot
    rfoot rtoes
    lowerback upperback
    upperback thorax
    thorax lowerneck lclavicle rclavicle
    lowerneck upperneck
    upperneck head
    lclavicle lhumerus
    lhumerus lradius
    lradius lwrist
    lwrist lhand lthumb
    lhand lfingers
    rclavicle rhumerus
    rhumerus rradius
    rradius rwrist
    rwrist rhand rthumb
    rhand rfingers
  end

#!OML:ASF E:\Style3\Style3.ASF
:FULLY-SPECIFIED
:DEGREES
707
root 0.282408 17.058 1.87468 -165.495 12.2672 -179.933
lowerback -3.66126 3.54786 -0.953669
upperback -3.77867 4.98274 1.13373
thorax -2.01888 2.62321 1.77586
lowerneck -2.03864 -6.89099 -8.18049
upperneck 5.94904 -9.45957 13.4378
head 3.1358 -4.36259 5.04309
rclavicle 4.18442e-014 2.70347e-014
rhumerus 1.64924 16.5564 -94.0012
rradius 122.009
rwrist 22.4526
rhand 38.3232 3.98692
rfingers 7.12502
rthumb 60.9912 -8.70896
lclavicle 4.18442e-014 2.70347e-014
lhumerus -0.980891 5.37088 92.5813
lradius 132.488
lwrist -23.3694
lhand 13.35 41.3631
lfingers 7.12502
lthumb 38.2963 67.0811
rfemur -14.3156 -17.1712 27.4512
rtibia 30.7102
rfoot -34.6952 -36.8443
rtoes 8.35612
lfemur -45.8085 -27.3255 -2.33313
ltibia 21.8135
lfoot 0.0190211 -21.7708
ltoes -22.765
708
root 0.27875 17.0558 1.86563 -165.55 12.09 -179.919
lowerback -3.50956 3.62865 -0.734042
upperback -3.64686 5.0742 1.15525
thorax -1.95388 2.65811 1.67264
lowerneck -2.04601 -6.94597 -7.90433
upperneck 6.03259 -9.53604 13.2694
head 3.14879 -4.39505 4.94075
rclavicle -1.08835e-014 -3.97569e-015
rhumerus 1.89562 16.5007 -94.0475
rradius 122.009
rwrist 22.448
rhand 38.3952 4.41918
rfingers 7.12502
rthumb 61.0521 -8.2071
lclavicle -1.08835e-014 -3.97569e-015
lhumerus -1.07382 5.15759 92.3459
lradius 132.357
lwrist -23.5124
lhand 14.0209 41.1685
lfingers 7.12502
lthumb 38.9292 66.7088
rfemur -14.2169 -16.665 27.299
rtibia 30.5673
rfoot -35.3735 -36.7895
rtoes 9.79683
lfemur -45.7369 -27.2731 -2.47999
ltibia 21.8412
lfoot 0.127639 -22.0162
ltoes -22.5758
709
root 0.27452 17.0545 1.85583 -165.544 11.9881 -180.02
lowerback -3.38465 3.70526 -0.726234
upperback -3.59539 5.17659 1.2735
thorax -1.98477 2.71014 1.78303
lowerneck -2.00856 -6.98729 -8.03456
upperneck 6.19364 -9.59909 13.2254
head 3.20109 -4.42811 4.94429
rclavicle 5.09386e-014 4.05521e-014
rhumerus 1.9192 16.4463 -93.8534
rradius 122.097
rwrist 22.2932
rhand 38.6304 4.65001
rfingers 7.12502
rthumb 61.2505 -7.74694
lclavicle 5.09386e-014 4.05521e-014
lhumerus -1.34 5.00619 92.4316
lradius 132.3
lwrist -23.5399
lhand 14.6509 40.8552
lfingers 7.12502
lthumb 39.523 66.2234
rfemur -14.1675 -16.2973 27.1054
rtibia 30.3862
rfoot -36.0847 -36.5733
rtoes 11.7872
lfemur -45.7729 -27.3455 -2.6016
ltibia 21.8419
lfoot 0.0545001 -22.0716
ltoes -22.9578
710
root 0.270414 17.054 1.84854 -165.546 11.9207 -180.037
lowerback -3.19352 3.81837 -0.58865
upperback -3.57673 5.33106 1.42783
thorax -2.08074 2.78801 1.8521
lowerneck -1.83158 -7.02785 -8.43764
upperneck 6.30332 -9.66351 13.3387
head 3.23606 -4.47009 5.04586
rclavicle 5.41688e-014 3.33958e-014
rhumerus 1.78173 16.3053 -93.6129
rradius 122.259
rwrist 22.07
rhand 38.9541 4.88889
rfingers 7.12502
rthumb 61.5226 -7.18697
lclavicle 5.41688e-014 3.33958e-014
lhumerus -1.622 4.83236 92.6729
lradius 132.318
lwrist -23.5697
lhand 15.3183 40.7374
lfingers 7.12502
lthumb 40.1512 65.9176
rfemur -14.0958 -16.1908 27.0612
rtibia 30.2563
rfoot -36.3326 -36.4938
rtoes 12.5823
lfemur -45.7675 -27.3975 -2.63905
ltibia 21.8214
lfoot 0.0444695 -22.0721
ltoes -23.0979
711
root 0.267176 17.0555 1.8408 -165.546 11.9172 -180.097
lowerback -3.11611 3.8447 -0.552012
upperback -3.51162 5.36458 1.52348
thorax -2.06409 2.80391 1.92677
lowerneck -1.7024 -6.98055 -8.46858
upperneck 6.32397 -9.6021 13.3031
head 3.2132 -4.44585 5.04815
rclavicle 2.78299e-014 2.06736e-014
rhumerus 1.77105 16.3035 -93.6466
rradius 122.288
rwrist 21.9837
rhand 39.1663 5.26913
rfingers 7.12502
rthumb 61.7005 -6.59273
lclavicle 2.78299e-014 2.06736e-014
lhumerus -1.82404 4.85353 92.6251
lradius 132.357
lwrist -23.4192
lhand 16.0212 40.5018
lfingers 7.12502
lthumb 40.812 65.4777
rfemur -14.0814 -16.175 27.0079
rtibia 30.2667
rfoot -36.1591 -36.7257
rtoes 12.0665
lfemur -45.7101 -27.4099 -2.73628
ltibia 21.7316
lfoot 0.0741705 -22.0598
ltoes -23.1908
712
root 0.261503 17.0585 1.83508 -165.487 11.8909 -180.117
lowerback -3.08983 3.68918 -0.632063
upperback -3.41217 5.15276 1.63313
thorax -1.98502 2.69782 2.08405
lowerneck -1.93005 -6.79768 -7.87926
upperneck 6.50738 -9.35127 12.8911
head 3.22988 -4.30768 4.83154
rclavicle -5.76476e-015 -5.56597e-015
rhumerus 1.9206 16.7151 -93.9877
rradius 122.214
rwrist 21.9489
rhand 39.2602 5.5675
rfingers 7.12502
rthumb 61.7791 -6.19873
lclavicle -5.76476e-015 -5.56597e-015
lhumerus -1.89253 5.14737 92.2211
lradius 132.379
lwrist -23.1914
lhand 16.4841 40.4142
lfingers 7.12502
lthumb 41.2467 65.2516
rfemur -14.1767 -16.2333 27.0067
rtibia 30.3459
rfoot -35.8597 -36.982
rtoes 11.408
lfemur -45.7098 -27.3514 -2.80001
ltibia 21.6388
lfoot 0.256613 -22.1329
ltoes -22.7586
713
root 0.255392 17.0617 1.8313 -165.416 11.9849 -180.274
lowerback -3.00641 3.84823 -0.567373
upperback -3.41408 5.36578 1.63112
thorax -2.03671 2.80361 2.04108
lowerneck -1.8344 -6.85904 -7.97336
upperneck 6.59411 -9.43753 12.8455
head 3.25105 -4.35521 4.83005
rclavicle -8.44835e-015 2.38542e-015
rhumerus 1.79549 16.4137 -93.7744
rradius 122.287
rwrist 21.9484
rhand 39.283 5.80985
rfingers 7.12502
rthumb 61.7982 -5.93309
lclavicle -8.44835e-015 2.38542e-015
lhumerus -2.11927 4.51358 92.4635
lradius 132.317
lwrist -23.1185
lhand 16.4914 40.4124
lfingers 7.12502
lthumb 41.2536 65.2477
rfemur -14.3589 -16.1987 26.8192
rtibia 30.4636
rfoot -35.8939 -36.8674
rtoes 11.6553
lfemur -45.7271 -27.2481 -3.00463
ltibia 21.5353
lfoot 0.438778 -22.1743
ltoes -22.3301
714
root 0.249802 17.0629 1.82811 -165.375 12.0928 -180.296
lowerback -2.97552 3.67439 -0.6175
upperback -3.31861 5.12913 1.73883
thorax -1.95996 2.68441 2.17949
lowerneck -2.0144 -6.60926 -7.60199
upperneck 6.79952 -9.10154 12.5675
head 3.2759 -4.17713 4.69695
rclavicle -5.46658e-014 -3.02153e-014
rhumerus 1.87848 16.8878 -93.9527
rradius 122.295
rwrist 21.7291
rhand 39.3937 5.93472
rfingers 7.12502
rthumb 61.8907 -5.69454
lclavicle -5.46658e-014 -3.02153e-014
lhumerus -2.2209 4.78676 92.1662
lradius 132.352
lwrist -22.9677
lhand 16.5937 40.3428
lfingers 7.12502
lthumb 41.3496 65.147
rfemur -14.4532 -16.1531 26.7592
rtibia 30.5558
rfoot -35.8719 -36.7888
rtoes 11.4176
lfemur -45.6785 -27.1181 -3.09836
ltibia 21.4606
lfoot 0.43092 -22.2285
ltoes -22.4825
715
root 0.242616 17.0631 1.82616 -165.348 12.2349 -180.33
lowerback -2.93527 3.72758 -0.466718
upperback -3.25098 5.19183 1.72367
thorax -1.90058 2.70936 2.08126
lowerneck -2.00717 -6.56661 -7.49184
upperneck 6.91005 -9.04973 12.5706
head 3.29722 -4.14229 4.68284
rclavicle 9.07452e-014 3.97569e-015
rhumerus 1.85841 16.7568 -93.93
rradius 122.342
rwrist 21.5528
rhand 39.4641 6.05291
rfingers 7.12502
rthumb 61.9495 -5.5037
lclavicle 9.07452e-014 3.97569e-015
lhumerus -2.28407 4.44964 92.1087
lradius 132.335
lwrist -22.7579
lhand 16.8117 40.4268
lfingers 7.12502
lthumb 41.5542 65.1645
rfemur -14.5116 -16.18 26.6784
rtibia 30.6328
rfoot -35.5204 -36.895
rtoes 10.4986
lfemur -45.6226 -26.9972 -3.2059
ltibia 21.3968
lfoot 0.363177 -22.2375
ltoes -22.8193
716
root 0.236254 17.066 1.82416 -165.288 12.4837 -180.341
lowerback -2.90779 3.71045 -0.439967
upperback -3.21096 5.17033 1.82462
thorax -1.88099 2.69937 2.1692
lowerneck -2.05544 -6.42664 -7.44172
upperneck 7.12441 -8.86631 12.459
head 3.34248 -4.04593 4.64827
rclavicle 5.83433e-014 3.97569e-014
rhumerus 1.7066 17.0263 -93.8668
rradius 122.449
rwrist 21.363
rhand 39.1837 5.67842
rfingers 7.12502
rthumb 61.7151 -6.16572
lclavicle 5.83433e-014 3.97569e-014
lhumerus -2.44436 4.18411 92.1098
lradius 132.331
lwrist -22.3687
lhand 16.1226 40.7348
lfingers 7.12502
lthumb 40.9073 65.6806
rfemur -14.5955 -16.1084 26.5865
rtibia 30.6769
rfoot -35.2669 -36.8887
rtoes 9.83487
lfemur -45.6058 -26.8542 -3.24609
ltibia 21.3765
lfoot 0.397594 -22.1433
ltoes -22.6069
717
root 0.230106 17.0707 1.82179 -165.25 12.7952 -180.312
lowerback -2.88908 3.52536 -0.542665
upperback -3.09743 4.92979 2.13115
thorax -1.80054 2.58512 2.54158
lowerneck -2.2146 -6.12694 -7.61729
upperneck 7.31086 -8.45941 12.2742
head 3.38172 -3.85292 4.63746
rclavicle -2.33572e-014 4.77083e-015
rhumerus 1.62894 17.7702 -93.7269
rradius 122.453
rwrist 21.144
rhand 38.7482 5.48106
rfingers 7.12502
rthumb 61.3496 -6.79979
lclavicle -2.33572e-014 4.77083e-015
lhumerus -2.63356 4.40251 92.1788
lradius 132.347
lwrist -22.0621
lhand 14.9095 40.9567
lfingers 7.12502
lthumb 39.7665 66.2528
rfemur -14.6367 -16.0339 26.5181
rtibia 30.6933
rfoot -34.8756 -36.8948
rtoes 8.74311
lfemur -45.5534 -26.7437 -3.23148
ltibia 21.369
lfoot 0.337391 -21.9517
ltoes -22.5059
718
root 0.222265 17.074 1.82218 -165.207 13.1339 -180.226
lowerback -2.88886 3.27869 -0.663941
upperback -2.96118 4.60939 2.50113
thorax -1.68534 2.43221 2.99188
lowerneck -2.43162 -5.7625 -7.74357
upperneck 7.55989 -7.96062 11.9596
head 3.43272 -3.6167 4.58199
rclavicle 3.37934e-015 3.81667e-014
rhumerus 1.63827 18.5026 -93.6497
rradius 122.496
rwrist 20.8371
rhand 38.8251 5.61991
rfingers 7.12502
rthumb 61.4143 -6.5847
lclavicle 3.37934e-015 3.81667e-014
lhumerus -2.75061 4.90643 92.2354
lradius 132.481
lwrist -22.1527
lhand 14.4595 40.9141
lfingers 7.12502
lthumb 39.3426 66.3352
rfemur -14.6715 -15.9106 26.493
rtibia 30.6969
rfoot -34.6169 -36.821
rtoes 8.27887
lfemur -45.5066 -26.665 -3.1054
ltibia 21.3473
lfoot 0.369214 -21.6559
ltoes -22.2919
719
root 0.213555 17.0786 1.82527 -165.179 13.5053 -180.101
lowerback -2.78613 3.20892 -0.615733
upperback -2.90919 4.52004 2.66444
thorax -1.69388 2.38938 3.1275
lowerneck -2.51036 -5.53477 -7.43194
upperneck 7.7787 -7.65126 11.5722
head 3.45256 -3.46306 4.42569
rclavicle -2.67365e-014 2.8625e-014
rhumerus 1.55271 18.6158 -93.6781
rradius 122.556
rwrist 20.7268
rhand 38.9251 5.50938
rfingers 7.12502
rthumb 61.4983 -6.5955
lclavicle -2.67365e-014 2.8625e-014
lhumerus -2.82608 4.91793 92.3217
lradius 132.536
lwrist -21.9568
lhand 14.4105 40.8631
lfingers 7.12502
lthumb 39.2965 66.2976
rfemur -14.6946 -15.6707 26.4913
rtibia 30.7101
rfoot -34.4415 -36.7653
rtoes 7.82792
lfemur -45.417 -26.5432 -2.9749
ltibia 21.3319
lfoot 0.25807 -21.3517
ltoes -22.5437
720
root 0.2032 17.0851 1.83143 -165.294 13.9747 -180.074
lowerback -2.4526 3.15769 -0.593086
upperback -2.86915 4.45089 2.74919
thorax -1.84018 2.35437 3.18146
lowerneck -2.60354 -5.3186 -7.16615
upperneck 8.08006 -7.3635 11.3015
head 3.50983 -3.31176 4.31126
rclavicle -2.88238e-014 3.49861e-014
rhumerus 1.33046 18.7179 -93.7069
rradius 122.615
rwrist 20.6992
rhand 38.8503 5.46309
rfingers 7.12502
rthumb 61.4355 -6.7164
lclavicle -2.88238e-014 3.49861e-014
lhumerus -2.90583 4.8094 92.3275
lradius 132.536
lwrist -21.5081
lhand 13.7718 40.8439
lfingers 7.12502
lthumb 38.6944 66.4508
rfemur -14.5899 -15.417 26.3204
rtibia 30.7239
rfoot -34.2165 -36.7049
rtoes 7.0104
lfemur -45.1723 -26.3644 -3.06916
ltibia 21.3767
lfoot 0.12202 -21.0978
ltoes -22.7271
721
root 0.190118 17.0905 1.8422 -165.442 14.4514 -180.014
lowerback -2.04076 3.08588 -0.469689
upperback -2.81902 4.35403 2.83703
thorax -2.01089 2.30324 3.17875
lowerneck -2.63744 -5.06879 -7.09241
upperneck 8.27811 -7.03001 11.1963
head 3.53615 -3.14234 4.28395
rclavicle -3.18055e-014 7.95139e-015
rhumerus 1.18654 18.8062 -93.6198
rradius 122.587
rwrist 20.5672
rhand 38.8979 5.69494
rfingers 7.12502
rthumb 61.4754 -6.43714
lclavicle -3.18055e-014 7.95139e-015
lhumerus -2.96017 4.6992 92.256
lradius 132.498
lwrist -21.1406
lhand 12.849 40.922
lfingers 7.12502
lthumb 37.8233 66.7691
rfemur -14.456 -15.285 26.1629
rtibia 30.7379
rfoot -34.107 -36.3988
rtoes 6.4557
lfemur -44.9308 -26.1695 -3.15843
ltibia 21.4815
lfoot 0.0335088 -20.8659
ltoes -22.8396
